<?xml version="1.0" encoding="UTF-8" standalone="no"?>
<svg xmlns:dc="http://purl.org/dc/elements/1.1/" xmlns:cc="http://creativecommons.org/ns#"
   xmlns:rdf="http://www.w3.org/1999/02/22-rdf-syntax-ns#" xmlns:svg="http://www.w3.org/2000/svg"
   xmlns="http://www.w3.org/2000/svg" id="svg8" version="1.1" viewBox="0 0 210 210" height="210mm" width="210mm">
   <defs id="defs2" />
   <metadata id="metadata5">
      <rdf:RDF>
         <cc:Work rdf:about="">
            <dc:format>image/svg+xml</dc:format>
            <dc:type rdf:resource="http://purl.org/dc/dcmitype/StillImage" />
            <dc:title></dc:title>
         </cc:Work>
      </rdf:RDF>
   </metadata>
   <g transform="translate(0,-87)" id="layer1">
      <path id="path5228"
         d="m 26.714946,227.71852 c -3.922288,0.3684 -8.216619,2.00282 -10.937035,4.20026 -3.003722,3.51576 -2.393868,6.33024 -0.134804,8.64829 47.572606,30.05629 122.046593,27.93271 163.360683,17.45141 3.09834,-0.8083 8.33798,-1.99251 12.23102,-4.06847 3.30978,-1.76496 5.64627,-4.1745 4.86621,-7.54565 -0.8219,-3.1061 -4.36854,-5.89078 -8.95237,-6.99972 -0.34257,-0.0829 -2.00069,-0.27571 -2.35416,-0.33947"
         style="fill:#1a1a1a;stroke:#000000;stroke-width:3.49999976;stroke-linecap:butt;stroke-linejoin:miter;stroke-miterlimit:4;stroke-dasharray:none;stroke-opacity:1" />
      <path id="path5226"
         d="m 27.032451,237.59212 c 1.378718,-57.71966 30.425701,-96.92606 84.760089,-94.63257 58.00917,3.86576 77.19257,63.80685 72.08912,103.55071 -58.16035,15.60791 -108.84307,7.57586 -156.849209,-8.91814 z"
         style="fill:#1a1a1a;stroke:#000000;stroke-width:3.49999976;stroke-linecap:butt;stroke-linejoin:miter;stroke-miterlimit:4;stroke-dasharray:none;stroke-opacity:1" />
      <path id="path5230"
         d="m 130.03713,253.41209 c 16.69565,-39.48944 8.97504,-64.98081 -0.0726,-104.97667 9.05511,1.50004 14.71278,4.59678 21.87369,10.75493 10.72092,9.21964 20.55859,21.038 25.57098,39.04372 4.40643,15.12309 7.45655,30.37277 6.47243,48.27619 -18.70244,3.74179 -37.31944,7.32033 -53.84453,6.90183 z"
         style="fill:#000000;stroke:#000000;stroke-width:0;stroke-linecap:butt;stroke-linejoin:miter;stroke-miterlimit:4;stroke-dasharray:none;stroke-opacity:1" />
      <path id="path5236"
         d="m 105.13955,143.39455 c 0.49068,-5.871 -6.629506,-8.54033 -12.382836,-11.78466 -4.776472,-4.8496 -5.388396,-9.6654 -3.175218,-17.56128 0.851061,-3.03627 6.126556,-3.6091 6.509063,-3.69887"
         style="fill:none;stroke:#000000;stroke-width:3.49999976;stroke-linecap:butt;stroke-linejoin:miter;stroke-miterlimit:4;stroke-dasharray:none;stroke-opacity:1" />
      <path id="path5236-7"
         d="m 119.09956,144.58143 c 0.16435,-5.88929 7.53665,-7.74635 13.61446,-10.32756 5.28529,-4.28567 6.42821,-9.00311 5.10563,-17.09717 -0.50859,-3.11247 -5.68764,-4.27125 -6.05778,-4.40321"
         style="fill:none;stroke:#000000;stroke-width:3.49999976;stroke-linecap:butt;stroke-linejoin:miter;stroke-miterlimit:4;stroke-dasharray:none;stroke-opacity:1" />
      <path id="path5253" d="m 93.553852,113.72162 0.280632,-7.20693 40.894146,3.39874 -1.21158,7.33485 z"
         style="fill:#ffffff;stroke:#000000;stroke-width:3.49999976;stroke-linecap:butt;stroke-linejoin:miter;stroke-miterlimit:4;stroke-dasharray:none;stroke-opacity:1" />
      <path id="path5257"
         d="m 105.34075,254.53818 26.04343,10.81037 55.00556,-9.23387 c 3.82744,-2.8597 8.63401,-4.86531 10.2153,-9.6843 l -10.50083,-7.24575 c -22.8477,5.23847 14.01176,12.24507 -80.76346,15.35355 z"
         style="fill:#000000;stroke:#000000;stroke-width:0;stroke-linecap:butt;stroke-linejoin:miter;stroke-miterlimit:4;stroke-dasharray:none;stroke-opacity:1" />
   </g>
</svg>