<?xml version="1.0" encoding="UTF-8" standalone="no"?>
<svg
   xmlns:dc="http://purl.org/dc/elements/1.1/"
   xmlns:cc="http://creativecommons.org/ns#"
   xmlns:rdf="http://www.w3.org/1999/02/22-rdf-syntax-ns#"
   xmlns:svg="http://www.w3.org/2000/svg"
   xmlns="http://www.w3.org/2000/svg"
   id="svg8"
   version="1.1"
   viewBox="0 0 210 210"
   height="210mm"
   width="210mm">
  <defs
     id="defs2" />
  <metadata
     id="metadata5">
    <rdf:RDF>
      <cc:Work
         rdf:about="">
        <dc:format>image/svg+xml</dc:format>
        <dc:type
           rdf:resource="http://purl.org/dc/dcmitype/StillImage" />
        <dc:title></dc:title>
      </cc:Work>
    </rdf:RDF>
  </metadata>
  <g
     transform="translate(0,-87)"
     id="layer1">
    <g
       transform="translate(0.22041238,88.739408)"
       id="layer1-8">
      <path
         style="fill:#7b1fa2;stroke:#000000;stroke-width:3.49999976;stroke-linecap:butt;stroke-linejoin:miter;stroke-miterlimit:4;stroke-dasharray:none;stroke-opacity:1;fill-opacity:1"
         d="m 28.853102,136.84688 c -3.922288,0.3684 -8.216619,2.00282 -10.937035,4.20026 -3.003722,3.51576 -2.393868,6.33024 -0.134804,8.64829 47.572606,30.05629 122.046597,27.93271 163.360687,17.45141 3.09834,-0.8083 8.33798,-1.99251 12.23102,-4.06847 3.30978,-1.76496 5.64627,-4.1745 4.86621,-7.54565 -0.8219,-3.1061 -4.36854,-5.89078 -8.95237,-6.99972 -0.34257,-0.0829 -2.00069,-0.27571 -2.35416,-0.33947"
         id="path5228" />
      <path
         style="fill:#7b1fa2;stroke:#000000;stroke-width:3.49999976;stroke-linecap:butt;stroke-linejoin:miter;stroke-miterlimit:4;stroke-dasharray:none;stroke-opacity:1;fill-opacity:1"
         d="M 29.170607,146.72048 C 30.549325,89.000822 59.596308,49.794426 113.9307,52.08791 c 58.00917,3.865759 77.19257,63.80685 72.08912,103.55071 -58.16035,15.60791 -108.843074,7.57586 -156.849213,-8.91814 z"
         id="path5226" />
      <path
         style="fill:#3e0f51;fill-opacity:1;stroke:#000000;stroke-width:0;stroke-linecap:butt;stroke-linejoin:miter;stroke-miterlimit:4;stroke-dasharray:none;stroke-opacity:1"
         d="m 132.17529,162.54045 c 16.69565,-39.48944 8.84141,-65.3149 -0.20623,-105.310756 8.31709,2.170681 16.21167,6.844859 22.14095,11.890828 10.72093,9.219639 20.42496,20.23619 25.43735,38.241908 2.76299,9.48273 4.72732,18.47652 5.32709,28.27998 0.0785,1.28248 0.10635,2.58068 0.14754,3.89626 0.082,2.61921 0.0343,5.30732 -0.0661,8.07742 -0.0784,2.16478 -0.27518,4.50919 -0.40078,6.79411 -5.06598,1.16053 -10.28164,2.35327 -15.04485,3.3466 -12.93374,2.70607 -25.12753,4.63629 -37.11786,4.33263 z"
         id="path5230" />
      <path
         style="fill:none;stroke:#000000;stroke-width:5;stroke-linecap:butt;stroke-linejoin:miter;stroke-miterlimit:4;stroke-dasharray:none;stroke-opacity:1"
         d="m 107.27771,52.522911 c 0.49068,-5.871001 -6.62951,-8.540332 -12.38284,-11.784657 -4.776472,-4.849607 -5.388396,-9.665405 -3.175218,-17.561287 0.851061,-3.03627 6.126556,-3.609092 6.509063,-3.698866"
         id="path5236" />
      <path
         style="fill:none;stroke:#000000;stroke-width:5;stroke-linecap:butt;stroke-linejoin:miter;stroke-miterlimit:4;stroke-dasharray:none;stroke-opacity:1"
         d="m 121.23772,53.709788 c 0.16435,-5.889291 7.53665,-7.746347 13.61446,-10.327561 5.28529,-4.285663 6.42821,-9.003106 5.10563,-17.097162 -0.50859,-3.112478 -5.68764,-4.271256 -6.05778,-4.403211"
         id="path5236-7" />
      <path
         style="fill:#7b1fa2;stroke:#000000;stroke-width:3.49999976;stroke-linecap:butt;stroke-linejoin:miter;stroke-miterlimit:4;stroke-dasharray:none;stroke-opacity:1;fill-opacity:1"
         d="m 95.692008,22.849978 0.280632,-7.206931 40.89415,3.398743 -1.21158,7.334847 z"
         id="path5253" />
      <path
         style="fill:#3e0f51;fill-opacity:1;stroke:#000000;stroke-width:0;stroke-linecap:butt;stroke-linejoin:miter;stroke-miterlimit:4;stroke-dasharray:none;stroke-opacity:1"
         d="m 107.34528,165.23675 c 16.30465,8.55136 45.44674,7.13277 66.94464,2.15345 7.31165,-1.84354 12.81855,-2.75499 18.90866,-6.17638 1.6638,-1.11805 3.71595,-2.49848 3.44598,-4.61153 -0.41373,-3.97782 -5.4442,-5.97081 -8.35208,-6.48523 -0.21308,2.65161 -0.4061,3.22843 -0.68977,6.74488 -14.06599,3.61835 -29.64496,6.57594 -42.97143,7.90865 -9.13992,0.8557 -21.55175,0.95223 -37.286,0.46616 z"
         id="path5257" />
    </g>
  </g>
</svg>
